# xmcd
#
# Track frame offsets: 
#        150
#        25338
#        40409
#        63500
#        78820
#        92491
#        107329
#        118086
#        128955
#        145277
#
# Disc length: 2106 seconds
#
# Revision: 2
# Processed by: cddbd v1.5.2PL0 Copyright (c) Steve Scherf et al.
# Submitted via: ExactAudioCopyFreeDBPlugin 1.0
#
DISCID=8008380a
DTITLE=Black and Blues - CD1 Everyday I have the Blues
DYEAR=2005
DGENRE=Blues
TTITLE0=Joe Turner - Everyday I Have the Blues
TTITLE1=Willie Dixon - Sitting and Crying the Blues
TTITLE2=Etta James - Please Send Me Someone To Love
TTITLE3=Memphis Slim - Blues Is Trouble
TTITLE4=Jimmy Witherspoon - One Scotch, One Bourbon, One Beer
TTITLE5=Willie Dixon - Nervous
TTITLE6=Charles Brown - Trouble Blues
TTITLE7=Muddy Waters - Stand Here Tremblin
TTITLE8=Eddie Vinson - Home Boy
TTITLE9=Odetta - Yonder Comes The Blues
EXTD=YEAR: 2005
EXTT0=
EXTT1=
EXTT2=
EXTT3=
EXTT4=
EXTT5=
EXTT6=
EXTT7=
EXTT8=
EXTT9=
PLAYORDER=
